<?xml version="1.0" encoding="utf-8"?>
<!-- Generator: Adobe Illustrator 20.1.0, SVG Export Plug-In . SVG Version: 6.00 Build 0)  -->
<svg version="1.1" id="Layer_1" xmlns="http://www.w3.org/2000/svg" xmlns:xlink="http://www.w3.org/1999/xlink" x="0px" y="0px"
	 viewBox="0 0 191.7 57.6" style="enable-background:new 0 0 191.7 57.6;" xml:space="preserve">
<style type="text/css">
	.st0{fill:#FFFFFF;}
	.st1{fill:#B7181E;}
	.st2{fill:#999999;}
	.st3{fill:#B3B3B3;}
	.st4{fill:#E6E6E6;}
	.st5{fill:#666666;}
	.st6{fill:#F2F2F2;}
	.st7{fill-rule:evenodd;clip-rule:evenodd;fill:#B7181E;}
	.st8{fill:#231F20;}
	.st9{fill:#6D6E70;}
	.st10{fill:#929497;}
	.st11{fill:#808080;}
	.st12{fill:#9B1014;}
	.st13{opacity:0.75;}
	.st14{fill:#CD181E;}
	.st15{fill:#4782AD;}
	.st16{fill:none;stroke:#E6E6E6;stroke-miterlimit:10;}
	.st17{opacity:0.2;fill:url(#SVGID_9_);}
	.st18{opacity:0.34;fill:url(#SVGID_10_);}
	.st19{fill:#F2F2F2;stroke:#E6E6E6;stroke-miterlimit:10;}
	.st20{fill:none;stroke:#E6E6E6;stroke-width:0.5;stroke-miterlimit:10;}
	.st21{filter:url(#Adobe_OpacityMaskFilter);}
	.st22{opacity:0.75;mask:url(#SVGID_11_);}
	.st23{fill:none;stroke:#999999;stroke-width:0.5;stroke-miterlimit:10;}
	.st24{opacity:0.2;fill:url(#SVGID_12_);}
	.st25{opacity:0.34;fill:url(#SVGID_13_);}
	.st26{fill:#FFFFFF;stroke:#E6E6E6;stroke-width:0.5;stroke-miterlimit:10;}
	.st27{opacity:0.2;fill:url(#SVGID_14_);}
	.st28{opacity:0.34;fill:url(#SVGID_15_);}
	.st29{opacity:0.2;fill:url(#SVGID_16_);}
	.st30{opacity:0.34;fill:url(#SVGID_17_);}
	.st31{opacity:0.34;fill:url(#SVGID_18_);}
	.st32{opacity:0.2;fill:url(#SVGID_19_);}
	.st33{opacity:0.34;fill:url(#SVGID_20_);}
	.st34{opacity:0.2;fill:url(#SVGID_21_);}
	.st35{opacity:0.34;fill:url(#SVGID_22_);}
	.st36{opacity:0.2;fill:url(#SVGID_23_);}
	.st37{opacity:0.34;fill:url(#SVGID_24_);}
	.st38{opacity:0.34;fill:url(#SVGID_25_);}
	.st39{filter:url(#Adobe_OpacityMaskFilter_1_);}
	.st40{opacity:0.75;mask:url(#SVGID_26_);}
	.st41{opacity:0.2;fill:url(#SVGID_27_);}
	.st42{opacity:0.34;fill:url(#SVGID_28_);}
	.st43{opacity:0.2;fill:url(#SVGID_29_);}
	.st44{opacity:0.34;fill:url(#SVGID_30_);}
	.st45{opacity:0.2;fill:url(#SVGID_31_);}
	.st46{opacity:0.34;fill:url(#SVGID_32_);}
	.st47{fill:#0000FF;}
	.st48{opacity:0.2;fill:url(#SVGID_33_);}
	.st49{opacity:0.34;fill:url(#SVGID_34_);}
	.st50{opacity:0.2;fill:url(#SVGID_35_);}
	.st51{opacity:0.34;fill:url(#SVGID_36_);}
	.st52{opacity:0.2;fill:url(#SVGID_37_);}
	.st53{opacity:0.34;fill:url(#SVGID_38_);}
	.st54{opacity:0.2;fill:url(#SVGID_39_);}
	.st55{opacity:0.34;fill:url(#SVGID_40_);}
</style>
<g>
	<g>
		<path class="st7" d="M181.1,49.7l-6.3,0.4l-4.9,0.3l-9.5-0.5l0,0l2.1-0.1l3.4-0.2C77.2,51.8,30.7,37,25.2,32.7
			c-3.3-2.6-1.7-8.7,1.9-16.7l0,0l-0.5-1c-0.3,0.3-0.6,0.6-0.8,1C14.5,28.7,1.4,39.4,12.1,44.6c21.1,10.3,98.1,15.1,171.4,4.9
			L181.1,49.7z"/>
		<path class="st0" d="M133.3,52.2c-16.7,0-44.8-0.5-60.4-2.1c-16.7-1.7-36.4-5.1-48-8.3c-5.3-1.5-8.3-3.3-9.3-5.5
			c-0.8-1.9,0.1-3.6,0.7-4.7l0.1-0.2c1.8-3.5,10.1-16.2,10.4-16.8l0.9,0.6c-0.1,0.1-8.6,13.2-10.4,16.7l-0.1,0.2
			c-0.5,1-1.2,2.3-0.6,3.7c0.8,1.9,3.7,3.5,8.5,4.9C36.8,44,56.4,47.4,73,49c20.4,2,62.5,2.3,71.9,1.9c9.5-0.4,38.3-2.6,38.5-2.7
			l0.1,1.1c-0.3,0-29.1,2.3-38.6,2.7C142.7,52.1,138.6,52.2,133.3,52.2z"/>
	</g>
	<g>
		<path class="st8" d="M47.4,32.4l-1.2,5.9H28.3c0.6-0.4,1-0.9,1.2-1.4c0.3-0.6,0.4-1.3,0.4-2.3V16c0-1-0.1-1.8-0.3-2.3
			c-0.2-0.6-0.5-1.1-1.1-1.5h17v5.3c-0.7-1.1-1.4-1.8-2.2-2.2c-1-0.6-2.5-0.8-4.4-0.8h-3.1v8.8h3.3c0.9,0,1.7-0.2,2.5-0.6
			c0.7-0.4,1.3-0.9,1.7-1.5v6.7c-0.4-0.5-0.8-1-1.4-1.4c-0.8-0.6-1.7-0.8-2.5-0.8h-3.6v10.5h3.2c2,0,3.7-0.3,5.1-0.9
			C45.6,34.5,46.6,33.6,47.4,32.4z"/>
		<path class="st8" d="M69.2,38.3h-8.3c0-0.6-0.1-1.2-0.2-1.7c-0.2-0.5-0.5-1.1-1.1-2l-2.9-4.4l-3.6,4.4c-0.9,1.2-1.4,2.1-1.4,2.6
			c0,0.3,0.1,0.7,0.3,1.1h-5.7c0.7-0.5,1.4-1,1.9-1.5c0.5-0.5,1.2-1.2,1.9-2.2l5.2-6.5l-5.1-8c-0.8-1.4-1.9-2.7-3.3-3.9h8.5
			c0,0.8,0.1,1.4,0.2,1.9c0.1,0.5,0.5,1.1,1.1,2.1l2.3,3.5l2.7-3.5c0.9-1.2,1.4-2.2,1.4-2.9c0-0.4-0.1-0.7-0.2-1h5.5
			c-0.7,0.6-1.4,1.2-2.1,2c-0.1,0.1-0.6,0.8-1.6,1.9l-4.5,5.8l5.6,8.8c0.6,0.9,1.1,1.7,1.6,2.2C67.9,37.3,68.5,37.8,69.2,38.3z"/>
		<path class="st8" d="M90.6,25.6c0,3.4-0.9,6.3-2.6,8.4c-1.8,2.3-4.4,3.7-7.9,4.1v-1.9c1-0.3,1.8-0.9,2.6-1.9
			c1.5-1.7,2.2-4.2,2.2-7.4c0-2.7-0.6-4.9-1.7-6.4c-0.9-1.1-1.9-1.8-3.1-1.9v-2.7c0.6-0.1,1.1-0.2,1.8-0.2c2.5,0,4.5,0.9,6.2,2.8
			C89.7,20.4,90.6,22.7,90.6,25.6z M80.1,38.1c-0.8,0.1-1.6,0.1-2.4,0.1h-2.5v8.8c0,0.9,0.1,1.7,0.3,2.2c0.2,0.5,0.5,1,1.1,1.4h-7.9
			c0.5-0.4,0.8-0.9,1-1.5c0.2-0.5,0.3-1.3,0.3-2.1V20c0-0.9-0.1-1.7-0.3-2.2c-0.2-0.5-0.5-1.1-1-1.6h6.7v2.5
			c1.3-1.5,2.9-2.5,4.8-2.8v2.7c-0.2,0-0.5,0-0.7,0c-1.3,0-2.3,0.5-3.1,1.4c-0.7,1-1.1,2.4-1.1,4.3v7.1c0,1.8,0.3,3.1,0.8,3.9
			c0.5,0.8,1.3,1.2,2.4,1.2c0.6,0,1.1-0.1,1.7-0.3V38.1z"/>
		<path class="st8" d="M105.4,22.8c-0.4-0.7-0.7-1.1-0.9-1.4c-0.8-1-1.7-1.5-2.6-1.5c-2.2,0-3.3,1.6-3.3,4.8v10c0,1,0.1,1.8,0.2,2.3
			c0.2,0.5,0.5,1,1,1.4h-7.9c0.5-0.5,0.9-1,1.1-1.5c0.2-0.5,0.3-1.3,0.3-2.2V20c0-1.6-0.4-2.8-1.1-3.8h6.5v3
			c1.8-2.2,4.1-3.4,6.7-3.4V22.8z"/>
		<path class="st8" d="M125.1,24.5h-9.8v-1.7h2.2c1.4,0,2.1-0.5,2.1-1.4c0-1-0.3-1.8-1-2.5c-0.7-0.8-1.7-1.2-2.8-1.2
			c-0.2,0-0.4,0-0.5,0v-1.9c0.2,0,0.4,0,0.6,0c2.7,0,4.9,0.8,6.6,2.5C124.3,19.9,125.1,22,125.1,24.5L125.1,24.5z M115.4,35.2
			c0.6,0.2,1.3,0.3,2.1,0.3c1.7,0,3.4-0.5,5-1.6c0.6-0.3,1.2-0.9,2-1.6l-0.9,3.5c-0.8,0.7-1.6,1.2-2.2,1.5c-1.9,1-3.9,1.5-6,1.5
			h-0.1V35.2z M115.4,24.5h-4.6c0,0.1,0,0.3,0,0.7c0,0.4,0,0.7,0,1.1c0,2.3,0.4,4.3,1.1,5.8c0.8,1.6,2,2.7,3.5,3.2v3.6
			c-3.1,0-5.6-1.2-7.6-3.5c-1.9-2.2-2.8-4.9-2.8-8.2c0-3.6,1.1-6.4,3.4-8.6c1.9-1.8,4.2-2.8,7-2.9v1.9c-1,0.1-1.8,0.6-2.6,1.3
			c-0.9,0.9-1.5,2.2-1.7,3.8h4.3V24.5z"/>
		<path class="st8" d="M145.9,32.4l-0.8,3.5c-0.8,0.7-1.4,1.1-2,1.4c-1.8,1-3.8,1.5-6,1.5c-3,0-5.5-1.1-7.6-3.2
			c-2-2.1-3.1-4.8-3.1-8c0-3.5,1-6.4,3.1-8.6c2.1-2.2,4.8-3.4,8.2-3.4c1.7,0,3.3,0.3,5,0.8c0.6,0.2,1.3,0.4,2.1,0.8v6.3
			c-0.8-1.3-1.4-2.3-1.9-3c-1.7-2-3.4-3-5.2-3c-1.8,0-3.1,0.7-4.1,2.2c-1,1.5-1.5,3.6-1.5,6.3c0,3,0.6,5.4,1.8,7
			c1.2,1.6,2.9,2.4,5,2.4c1.6,0,3.2-0.5,4.9-1.6C144.4,33.6,145.1,33.1,145.9,32.4z"/>
		<path class="st8" d="M165.8,38.3h-6.3l-0.1-2.6c-1,1-2.1,1.8-3.2,2.4c-0.2,0.1-0.3,0.1-0.5,0.2v-2.5c0.9-0.1,1.7-0.5,2.3-1.1
			c0.8-0.9,1.2-2.1,1.2-3.8v-4.4l-2.9,1.4c-0.2,0.1-0.4,0.2-0.6,0.3V26l3.5-1.7v-2.9c0-1.1-0.2-2-0.5-2.5c-0.4-0.7-1.1-1.1-2.2-1.1
			c-0.3,0-0.5,0-0.8,0.1v-2c0.4,0,0.8,0,1.2,0c2.8,0,4.8,0.5,5.9,1.4c1.1,0.9,1.7,2.5,1.7,4.8v12.7c0,0.9,0.1,1.6,0.3,2.2
			C164.9,37.4,165.3,37.8,165.8,38.3z M155.7,38.3c-1,0.4-2,0.6-3.2,0.6c-1.7,0-3.1-0.5-4.2-1.5c-1.1-1-1.6-2.2-1.6-3.6
			c0-1.2,0.4-2.3,1.2-3.1c0.8-0.9,2.1-1.8,4-2.7l3.8-1.9v2.2c-1,0.5-1.7,1.1-2.3,1.7c-0.8,0.9-1.2,1.8-1.2,2.8
			c0,0.9,0.3,1.6,0.9,2.2c0.6,0.6,1.3,0.9,2.2,0.9c0.1,0,0.3,0,0.4,0V38.3L155.7,38.3z M155.7,17.9c-0.9,0.1-1.8,0.5-2.7,1.2
			c-1.4,1-2.9,2.5-4.3,4.6v-5.9c1.2-0.6,2.5-1.1,4-1.4c1-0.2,2-0.4,2.9-0.5V17.9z"/>
		<path class="st8" d="M180.6,22.8c-0.4-0.7-0.7-1.1-0.9-1.4c-0.8-1-1.7-1.5-2.6-1.5c-2.2,0-3.3,1.6-3.3,4.8v10c0,1,0.1,1.8,0.2,2.3
			c0.2,0.5,0.5,1,1,1.4h-7.9c0.5-0.5,0.9-1,1.1-1.5c0.2-0.5,0.3-1.3,0.3-2.2V20c0-1.6-0.4-2.8-1.1-3.8h6.5v3
			c1.8-2.2,4.1-3.4,6.7-3.4V22.8z"/>
	</g>
	<g>
		<path class="st9" d="M90.8,44.9l-0.2,0.9h-2.9c0.2-0.1,0.2-0.4,0.2-0.6v-3.3c0-0.2,0-0.3,0-0.4c0-0.1-0.1-0.2-0.2-0.3h2.8v0.8
			c-0.1-0.2-0.3-0.3-0.5-0.4c-0.1-0.1-0.3-0.1-0.5-0.1h-0.8v1.6h0.7c0.2,0,0.4-0.1,0.5-0.2c0,0,0.1-0.1,0.2-0.2v1
			c-0.1-0.1-0.1-0.1-0.2-0.2c-0.1-0.1-0.3-0.2-0.5-0.2h-0.8v1.9h0.9c0.2,0,0.4-0.1,0.7-0.2C90.5,45.2,90.7,45.1,90.8,44.9z"/>
		<path class="st9" d="M94.8,45.8h-0.9c0-0.1,0-0.1,0-0.2c0-0.2,0-0.4,0-0.6v-1.6c0-0.7-0.2-1-0.7-1c-0.3,0-0.6,0.1-0.7,0.2
			c-0.2,0.2-0.3,0.4-0.3,0.8v1.8c0,0.2,0,0.3,0,0.3c0,0.1,0.1,0.2,0.1,0.2h-1.1c0.1-0.2,0.2-0.4,0.2-0.6v-2.6c0-0.2,0-0.3,0-0.4
			c0-0.1-0.1-0.2-0.1-0.3h0.9v0.4c0.1-0.1,0.2-0.2,0.3-0.3c0.3-0.2,0.6-0.3,0.9-0.3c0.4,0,0.8,0.1,1,0.3c0.2,0.2,0.3,0.5,0.3,0.9
			v2.1c0,0.2,0,0.3,0,0.4C94.7,45.7,94.7,45.7,94.8,45.8z"/>
		<path class="st9" d="M98.7,45.8h-1c0.1-0.1,0.2-0.3,0.2-0.6v-4.7c0-0.2,0-0.3,0-0.4c0-0.1-0.1-0.2-0.1-0.3h0.9v5.3
			c0,0.1,0,0.3,0,0.3C98.6,45.6,98.7,45.7,98.7,45.8z"/>
		<path class="st9" d="M103.3,43.9c0,0.5-0.2,1-0.5,1.4c-0.4,0.4-0.9,0.6-1.5,0.6h0v-0.3h0c0.4,0,0.7-0.1,0.9-0.4
			c0.2-0.3,0.3-0.7,0.3-1.1c0-0.5-0.1-1-0.4-1.3c-0.2-0.4-0.5-0.5-0.9-0.5v-0.3l0,0c0.6,0,1,0.2,1.4,0.6
			C103.1,42.9,103.3,43.4,103.3,43.9z M101.3,45.9c-0.6,0-1-0.2-1.4-0.5c-0.4-0.4-0.6-0.8-0.6-1.4c0-0.6,0.2-1.1,0.6-1.5
			c0.4-0.4,0.9-0.6,1.4-0.6v0.3c-0.4,0-0.7,0.1-0.9,0.4c-0.2,0.3-0.4,0.7-0.4,1.2c0,0.5,0.1,1,0.4,1.3c0.2,0.3,0.5,0.5,0.9,0.5V45.9
			z"/>
		<path class="st9" d="M106.2,44.8c0,0.3-0.1,0.6-0.4,0.8c-0.3,0.2-0.6,0.3-1,0.3c-0.3,0-0.5,0-0.8-0.1c-0.1,0-0.2-0.1-0.3-0.2v-0.9
			c0.1,0.2,0.2,0.3,0.3,0.4c0.2,0.3,0.5,0.4,0.8,0.4c0.2,0,0.4-0.1,0.5-0.2c0.1-0.1,0.2-0.3,0.2-0.4c0-0.3-0.1-0.5-0.4-0.7
			c-0.3-0.2-0.6-0.3-0.8-0.5c-0.3-0.2-0.4-0.5-0.4-0.8c0-0.3,0.1-0.5,0.3-0.7c0.2-0.2,0.6-0.3,1-0.3c0.2,0,0.4,0,0.6,0.1
			c0.1,0,0.2,0.1,0.3,0.1v0.8c-0.1-0.1-0.2-0.3-0.2-0.3c-0.2-0.2-0.4-0.3-0.7-0.3c-0.2,0-0.3,0.1-0.5,0.2c-0.1,0.1-0.2,0.3-0.2,0.4
			c0,0.2,0.1,0.4,0.4,0.6c0.3,0.2,0.6,0.3,0.8,0.5C106,44.1,106.2,44.4,106.2,44.8z"/>
		<path class="st9" d="M111.7,44.6c0,0.4-0.1,0.7-0.4,0.9c-0.3,0.3-0.7,0.4-1.1,0.4c-0.2,0-0.4,0-0.6-0.1c-0.2-0.1-0.4-0.1-0.6-0.3
			v-1c0.1,0.4,0.3,0.6,0.5,0.8c0.2,0.1,0.4,0.2,0.6,0.2c0.3,0,0.5-0.1,0.6-0.2c0.2-0.1,0.2-0.3,0.2-0.6c0-0.3-0.2-0.6-0.5-0.8
			c-0.3-0.2-0.6-0.5-0.9-0.7c-0.3-0.3-0.5-0.6-0.5-1c0-0.3,0.1-0.6,0.4-0.8c0.2-0.2,0.5-0.3,0.9-0.3c0.2,0,0.3,0,0.5,0
			c0.2,0,0.3,0.1,0.5,0.1c0,0,0.1,0,0.1,0c0,0,0,0,0,0v1c-0.1-0.2-0.2-0.4-0.4-0.6c-0.2-0.1-0.4-0.2-0.6-0.2c-0.2,0-0.4,0.1-0.5,0.2
			c-0.1,0.1-0.2,0.3-0.2,0.5c0,0.2,0.2,0.4,0.5,0.7c0.3,0.2,0.6,0.5,0.9,0.7C111.5,43.9,111.7,44.2,111.7,44.6z"/>
		<path class="st9" d="M115.1,45.8h-0.8l0-0.4c-0.2,0.2-0.4,0.3-0.6,0.4c-0.1,0-0.1,0-0.2,0.1v-0.4c0.2,0,0.3-0.1,0.4-0.2
			c0.2-0.1,0.2-0.4,0.2-0.7v-0.8l-0.6,0.3c-0.1,0-0.1,0.1-0.1,0.1v-0.4l0.7-0.4v-0.5c0-0.2,0-0.3-0.1-0.4c-0.1-0.1-0.2-0.2-0.4-0.2
			c-0.1,0-0.1,0-0.2,0V42c0.1,0,0.1,0,0.2,0c0.4,0,0.7,0.1,0.9,0.2c0.2,0.2,0.3,0.4,0.3,0.8v2.3c0,0.2,0,0.3,0,0.4
			S115,45.7,115.1,45.8z M113.5,45.8c-0.1,0-0.3,0.1-0.4,0.1c-0.3,0-0.5-0.1-0.7-0.3c-0.2-0.2-0.3-0.4-0.3-0.6
			c0-0.2,0.1-0.4,0.2-0.6c0.1-0.1,0.4-0.3,0.7-0.4l0.5-0.3v0.4c-0.2,0.1-0.4,0.2-0.5,0.4c-0.1,0.1-0.2,0.3-0.2,0.4
			c0,0.1,0.1,0.3,0.2,0.4c0.1,0.1,0.3,0.2,0.4,0.2c0,0,0.1,0,0.1,0V45.8L113.5,45.8z M113.5,42.3c-0.2,0-0.5,0.2-0.7,0.5
			c-0.1,0.1-0.2,0.3-0.4,0.5v-0.9c0.2-0.1,0.3-0.1,0.4-0.2c0.2-0.1,0.5-0.2,0.7-0.2V42.3z"/>
		<path class="st9" d="M119.2,45.8h-0.9c0-0.1,0-0.1,0-0.2c0-0.2,0-0.4,0-0.6v-1.6c0-0.7-0.2-1-0.7-1c-0.3,0-0.6,0.1-0.7,0.2
			c-0.2,0.2-0.3,0.4-0.3,0.8v1.8c0,0.2,0,0.3,0,0.3c0,0.1,0.1,0.2,0.1,0.2h-1.1c0.1-0.2,0.2-0.4,0.2-0.6v-2.6c0-0.2,0-0.3,0-0.4
			c0-0.1-0.1-0.2-0.1-0.3h0.9v0.4c0.1-0.1,0.2-0.2,0.3-0.3c0.3-0.2,0.6-0.3,0.9-0.3c0.4,0,0.8,0.1,1,0.3c0.2,0.2,0.3,0.5,0.3,0.9
			v2.1c0,0.2,0,0.3,0,0.4C119,45.7,119.1,45.7,119.2,45.8z"/>
		<path class="st9" d="M121.3,45.7c-0.1,0.1-0.2,0.1-0.3,0.2c-0.1,0-0.2,0.1-0.4,0.1c-0.3,0-0.5-0.1-0.6-0.2
			c-0.1-0.2-0.2-0.4-0.2-0.8v-2.5h-0.3l0.1-0.3h0.3v-0.8l0.7-0.2v1h0.7l-0.1,0.3h-0.6v2.5c0,0.2,0,0.3,0.1,0.4
			c0,0.1,0.1,0.1,0.2,0.1c0.1,0,0.2,0,0.2-0.1c0.1,0,0.1-0.1,0.2-0.2V45.7z"/>
		<path class="st9" d="M124.6,45.8h-0.8l0-0.4c-0.2,0.2-0.4,0.3-0.6,0.4c-0.1,0-0.1,0-0.2,0.1v-0.4c0.2,0,0.3-0.1,0.5-0.2
			c0.2-0.1,0.2-0.4,0.2-0.7v-0.8l-0.6,0.3c-0.1,0-0.1,0.1-0.1,0.1v-0.4l0.7-0.4v-0.5c0-0.2,0-0.3-0.1-0.4c-0.1-0.1-0.2-0.2-0.4-0.2
			c-0.1,0-0.1,0-0.2,0V42c0.1,0,0.1,0,0.2,0c0.4,0,0.7,0.1,0.9,0.2c0.2,0.2,0.3,0.4,0.3,0.8v2.3c0,0.2,0,0.3,0,0.4
			C124.4,45.7,124.5,45.7,124.6,45.8z M123,45.8c-0.1,0-0.3,0.1-0.4,0.1c-0.3,0-0.5-0.1-0.7-0.3c-0.2-0.2-0.3-0.4-0.3-0.6
			c0-0.2,0.1-0.4,0.2-0.6c0.1-0.1,0.4-0.3,0.7-0.4l0.5-0.3v0.4c-0.2,0.1-0.4,0.2-0.5,0.4c-0.1,0.1-0.2,0.3-0.2,0.4
			c0,0.1,0.1,0.3,0.2,0.4c0.1,0.1,0.3,0.2,0.4,0.2c0,0,0.1,0,0.1,0V45.8L123,45.8z M123,42.3c-0.2,0-0.5,0.2-0.7,0.5
			c-0.1,0.1-0.2,0.3-0.4,0.5v-0.9c0.2-0.1,0.3-0.1,0.4-0.2c0.2-0.1,0.5-0.2,0.7-0.2V42.3z"/>
		<path class="st9" d="M128.7,45.8h-0.9c0-0.1,0-0.1,0-0.2c0-0.2,0-0.4,0-0.6v-1.6c0-0.7-0.2-1-0.7-1c-0.3,0-0.6,0.1-0.7,0.2
			c-0.2,0.2-0.3,0.4-0.3,0.8v1.8c0,0.2,0,0.3,0,0.3c0,0.1,0.1,0.2,0.1,0.2h-1.1c0.1-0.2,0.2-0.4,0.2-0.6v-2.6c0-0.2,0-0.3,0-0.4
			c0-0.1-0.1-0.2-0.1-0.3h0.9v0.4c0.1-0.1,0.2-0.2,0.3-0.3c0.3-0.2,0.6-0.3,0.9-0.3c0.4,0,0.8,0.1,1,0.3c0.2,0.2,0.3,0.5,0.3,0.9
			v2.1c0,0.2,0,0.3,0,0.4C128.5,45.7,128.6,45.7,128.7,45.8z"/>
		<path class="st9" d="M132.7,45.8h-0.9v-0.5c-0.1,0.2-0.3,0.3-0.5,0.4c-0.2,0.1-0.3,0.1-0.5,0.1v-0.4c0,0,0.1,0,0.1,0
			c0.3,0,0.5-0.1,0.7-0.3c0.2-0.2,0.2-0.5,0.2-0.8v-1.2c0-0.3-0.1-0.5-0.2-0.7c-0.1-0.2-0.3-0.2-0.5-0.2c-0.1,0-0.2,0-0.4,0.1v-0.3
			c0.2,0,0.4,0,0.6,0h0.4v-1.5c0-0.2-0.1-0.5-0.2-0.6h0.9v5.3c0,0.2,0,0.3,0,0.4C132.6,45.7,132.7,45.7,132.7,45.8z M130.9,45.9
			c-0.1,0-0.1,0-0.2,0c-0.4,0-0.8-0.2-1.1-0.5c-0.3-0.3-0.4-0.7-0.4-1.2c0-0.6,0.2-1.1,0.5-1.5c0.3-0.4,0.7-0.6,1.3-0.7v0.3
			c-0.2,0.1-0.4,0.2-0.6,0.4c-0.3,0.3-0.4,0.7-0.4,1.3c0,0.5,0.1,0.8,0.3,1.1c0.2,0.2,0.4,0.4,0.7,0.4V45.9z"/>
		<path class="st9" d="M136.7,43.4H135v-0.3h0.7c0.2,0,0.2-0.1,0.2-0.3c0-0.2-0.1-0.3-0.2-0.5c-0.1-0.2-0.4-0.2-0.7-0.2
			c0,0-0.1,0-0.1,0v-0.3c0,0,0.1,0,0.1,0c0.4,0,0.8,0.1,1.1,0.4C136.5,42.7,136.7,43,136.7,43.4L136.7,43.4z M135,45.5
			c0.1,0,0.2,0,0.3,0c0.2,0,0.5-0.1,0.7-0.2c0.2-0.1,0.4-0.3,0.6-0.5l-0.1,0.6c-0.2,0.2-0.4,0.3-0.6,0.4c-0.2,0.1-0.4,0.1-0.7,0.1
			c-0.1,0-0.1,0-0.1,0V45.5z M135,43.4h-1c0,0.1,0,0.1,0,0.2c0,0.1,0,0.2,0,0.2c0,0.5,0.1,0.9,0.4,1.2c0.2,0.2,0.4,0.3,0.6,0.4v0.4
			c-0.5,0-0.9-0.2-1.2-0.6c-0.3-0.4-0.5-0.9-0.5-1.4c0-0.6,0.2-1.1,0.5-1.4c0.3-0.3,0.7-0.5,1.2-0.6v0.3c-0.2,0-0.4,0.1-0.6,0.3
			c-0.1,0.2-0.3,0.4-0.3,0.7h0.9V43.4z"/>
		<path class="st9" d="M139.2,43c-0.1-0.1-0.1-0.2-0.1-0.2c-0.1-0.1-0.3-0.2-0.4-0.2c-0.2,0-0.3,0.1-0.4,0.2
			c-0.1,0.1-0.2,0.4-0.2,0.7v1.8c0,0.2,0,0.3,0,0.4c0,0.1,0.1,0.1,0.1,0.2h-1.1c0.1-0.1,0.1-0.2,0.2-0.3c0-0.1,0-0.2,0-0.4v-2.6
			c0-0.3-0.1-0.5-0.2-0.6h0.9v0.5c0.1-0.2,0.3-0.3,0.5-0.4c0.2-0.1,0.4-0.2,0.6-0.2V43z"/>
		<path class="st9" d="M142.8,43.4H141v-0.3h0.7c0.2,0,0.2-0.1,0.2-0.3c0-0.2-0.1-0.3-0.2-0.5c-0.1-0.2-0.4-0.2-0.7-0.2
			c0,0-0.1,0-0.1,0v-0.3c0,0,0.1,0,0.1,0c0.4,0,0.8,0.1,1.1,0.4C142.6,42.7,142.8,43,142.8,43.4L142.8,43.4z M141,45.5
			c0.1,0,0.2,0,0.3,0c0.2,0,0.5-0.1,0.7-0.2c0.2-0.1,0.4-0.3,0.6-0.5l-0.1,0.6c-0.2,0.2-0.4,0.3-0.6,0.4c-0.2,0.1-0.4,0.1-0.7,0.1
			c-0.1,0-0.1,0-0.1,0V45.5z M141,43.4h-1c0,0.1,0,0.1,0,0.2c0,0.1,0,0.2,0,0.2c0,0.5,0.1,0.9,0.4,1.2c0.2,0.2,0.4,0.3,0.6,0.4v0.4
			c-0.5,0-0.9-0.2-1.2-0.6c-0.3-0.4-0.5-0.9-0.5-1.4c0-0.6,0.2-1.1,0.5-1.4c0.3-0.3,0.7-0.5,1.2-0.6v0.3c-0.2,0-0.4,0.1-0.6,0.3
			c-0.1,0.2-0.3,0.4-0.3,0.7h0.9V43.4z"/>
		<path class="st9" d="M145.7,44.8c0,0.3-0.1,0.6-0.4,0.8c-0.3,0.2-0.6,0.3-1,0.3c-0.3,0-0.5,0-0.8-0.1c-0.1,0-0.2-0.1-0.3-0.2v-0.9
			c0.1,0.2,0.2,0.3,0.3,0.4c0.2,0.3,0.5,0.4,0.8,0.4c0.2,0,0.4-0.1,0.5-0.2c0.1-0.1,0.2-0.3,0.2-0.4c0-0.3-0.1-0.5-0.4-0.7
			c-0.3-0.2-0.6-0.3-0.8-0.5c-0.3-0.2-0.4-0.5-0.4-0.8c0-0.3,0.1-0.5,0.3-0.7c0.2-0.2,0.6-0.3,1-0.3c0.2,0,0.4,0,0.6,0.1
			c0.1,0,0.2,0.1,0.3,0.1v0.8c-0.1-0.1-0.2-0.3-0.2-0.3c-0.2-0.2-0.4-0.3-0.7-0.3c-0.2,0-0.3,0.1-0.5,0.2c-0.1,0.1-0.2,0.3-0.2,0.4
			c0,0.2,0.1,0.4,0.4,0.6c0.3,0.2,0.6,0.3,0.8,0.5C145.5,44.1,145.7,44.4,145.7,44.8z"/>
		<path class="st9" d="M147.4,44.7c-0.1,0.4-0.2,0.7-0.4,1c-0.3,0.3-0.6,0.6-1,0.8c0.1-0.2,0.3-0.5,0.4-0.8c0.2-0.4,0.3-0.8,0.3-1.1
			H147.4z"/>
		<g>
			<path class="st1" d="M151.1,45.8h-1c0.1-0.1,0.2-0.3,0.2-0.6v-4.7c0-0.2,0-0.3,0-0.4c0-0.1-0.1-0.2-0.1-0.3h0.9v5.3
				c0,0.1,0,0.3,0,0.3C151,45.6,151,45.7,151.1,45.8z"/>
			<path class="st1" d="M155.6,43.9c0,0.5-0.2,1-0.5,1.4c-0.4,0.4-0.9,0.6-1.5,0.6h0v-0.3h0c0.4,0,0.7-0.1,0.9-0.4
				c0.2-0.3,0.3-0.7,0.3-1.1c0-0.5-0.1-1-0.4-1.3c-0.2-0.4-0.5-0.5-0.9-0.5v-0.3l0,0c0.6,0,1,0.2,1.4,0.6
				C155.4,42.9,155.6,43.4,155.6,43.9z M153.6,45.9c-0.6,0-1-0.2-1.4-0.5c-0.4-0.4-0.6-0.8-0.6-1.4c0-0.6,0.2-1.1,0.6-1.5
				c0.4-0.4,0.9-0.6,1.4-0.6v0.3c-0.4,0-0.7,0.1-0.9,0.4c-0.2,0.3-0.4,0.7-0.4,1.2c0,0.5,0.1,1,0.4,1.3c0.2,0.3,0.5,0.5,0.9,0.5
				V45.9z"/>
			<path class="st1" d="M163.1,45.8h-1.2c0.1-0.1,0.2-0.4,0.2-0.6l-0.1-3.1l-1.2,3.7h-0.4l-1.3-3.6l-0.1,3c0,0.1,0,0.3,0.1,0.3
				c0,0.1,0.1,0.2,0.2,0.3h-0.8c0.2-0.2,0.2-0.4,0.2-0.6l0.1-3.3c0-0.1,0-0.2,0-0.3c0-0.1-0.1-0.2-0.1-0.3h1l1.1,3.3l1.1-3.3h1.1
				c-0.1,0.1-0.2,0.3-0.2,0.6l0.1,3.3c0,0.1,0,0.3,0,0.3C163,45.6,163,45.7,163.1,45.8z"/>
			<path class="st1" d="M167.1,43.4h-1.7v-0.3h0.7c0.2,0,0.2-0.1,0.2-0.3c0-0.2-0.1-0.3-0.2-0.5c-0.1-0.2-0.4-0.2-0.6-0.2
				c0,0-0.1,0-0.1,0v-0.3c0,0,0.1,0,0.1,0c0.4,0,0.8,0.1,1.1,0.4C166.9,42.7,167.1,43,167.1,43.4L167.1,43.4z M165.3,45.5
				c0.1,0,0.2,0,0.3,0c0.2,0,0.5-0.1,0.7-0.2c0.2-0.1,0.4-0.3,0.6-0.5l-0.1,0.6c-0.2,0.2-0.4,0.3-0.6,0.4c-0.2,0.1-0.4,0.1-0.7,0.1
				c-0.1,0-0.1,0-0.1,0V45.5z M165.3,43.4h-1c0,0.1,0,0.1,0,0.2c0,0.1,0,0.2,0,0.2c0,0.5,0.1,0.9,0.4,1.2c0.2,0.2,0.4,0.3,0.6,0.4
				v0.4c-0.5,0-0.9-0.2-1.2-0.6c-0.3-0.4-0.5-0.9-0.5-1.4c0-0.6,0.2-1.1,0.5-1.4c0.3-0.3,0.7-0.5,1.2-0.6v0.3
				c-0.2,0-0.4,0.1-0.6,0.3c-0.1,0.2-0.3,0.4-0.3,0.7h0.9V43.4z"/>
			<path class="st1" d="M168.5,40.8c0,0.1,0,0.2-0.1,0.3c-0.1,0.1-0.2,0.1-0.3,0.1c-0.1,0-0.2,0-0.3-0.1c-0.1-0.1-0.1-0.2-0.1-0.3
				c0-0.1,0-0.2,0.1-0.3c0.1-0.1,0.2-0.1,0.3-0.1c0.1,0,0.2,0,0.3,0.1C168.4,40.5,168.5,40.6,168.5,40.8L168.5,40.8z M168.4,46.5
				c0,0.5-0.1,0.9-0.2,1.1c-0.2,0.3-0.4,0.4-0.8,0.4c0.1-0.1,0.1-0.2,0.2-0.3c0.1-0.2,0.2-0.4,0.2-0.6v-4.5c0-0.2-0.1-0.5-0.2-0.6
				h0.9V46.5z"/>
			<path class="st1" d="M173,43.9c0,0.5-0.2,1-0.5,1.4c-0.4,0.4-0.9,0.6-1.5,0.6h0v-0.3h0c0.4,0,0.7-0.1,0.9-0.4
				c0.2-0.3,0.3-0.7,0.3-1.1c0-0.5-0.1-1-0.4-1.3c-0.2-0.4-0.5-0.5-0.9-0.5v-0.3l0,0c0.6,0,1,0.2,1.4,0.6
				C172.9,42.9,173,43.4,173,43.9z M171,45.9c-0.6,0-1-0.2-1.4-0.5c-0.4-0.4-0.6-0.8-0.6-1.4c0-0.6,0.2-1.1,0.6-1.5
				c0.4-0.4,0.9-0.6,1.4-0.6v0.3c-0.4,0-0.7,0.1-0.9,0.4c-0.2,0.3-0.4,0.7-0.4,1.2c0,0.5,0.1,1,0.4,1.3c0.2,0.3,0.5,0.5,0.9,0.5
				V45.9z"/>
			<path class="st1" d="M175.6,43c-0.1-0.1-0.1-0.2-0.1-0.2c-0.1-0.1-0.3-0.2-0.4-0.2c-0.2,0-0.3,0.1-0.4,0.2
				c-0.1,0.1-0.2,0.4-0.2,0.7v1.8c0,0.2,0,0.3,0,0.4c0,0.1,0.1,0.1,0.1,0.2h-1.1c0.1-0.1,0.1-0.2,0.2-0.3c0-0.1,0-0.2,0-0.4v-2.6
				c0-0.3-0.1-0.5-0.2-0.6h0.9v0.5c0.1-0.2,0.3-0.3,0.5-0.4c0.2-0.1,0.4-0.2,0.6-0.2V43z"/>
		</g>
	</g>
	<g>
		<path class="st10" d="M35,4.5c-0.1-0.3-0.4-0.5-0.7-0.7c-0.3-0.2-0.6-0.2-0.9-0.2h-0.7v6c0,0.3,0,0.5,0.1,0.6
			c0,0.1,0.1,0.3,0.3,0.4h-2.1c0.2-0.3,0.4-0.6,0.4-1v-6h-0.7c-0.7,0-1.2,0.3-1.6,0.9V2.9h6V4.5z"/>
		<path class="st10" d="M38.9,5.8c-0.1-0.2-0.2-0.3-0.2-0.3c-0.2-0.2-0.4-0.3-0.7-0.3c-0.3,0-0.5,0.1-0.7,0.3
			c-0.2,0.3-0.3,0.6-0.3,1.1v3.1c0,0.3,0,0.5,0,0.6c0,0.1,0.1,0.2,0.2,0.4h-1.8c0.1-0.1,0.2-0.3,0.3-0.4c0-0.1,0.1-0.3,0.1-0.6V5.2
			c0-0.4-0.1-0.8-0.3-1.1h1.5v0.9c0.2-0.3,0.5-0.5,0.9-0.7c0.4-0.2,0.7-0.3,1.1-0.3V5.8z"/>
		<path class="st10" d="M44.2,10.7h-1.4l0-0.8c-0.3,0.3-0.6,0.6-1,0.7c-0.1,0-0.2,0.1-0.3,0.1v-0.7c0.3,0,0.6-0.1,0.8-0.3
			c0.3-0.3,0.4-0.7,0.4-1.2V7.1l-0.9,0.5c-0.1,0-0.2,0.1-0.3,0.1V7.1l1.2-0.6V5.7c0-0.3-0.1-0.6-0.2-0.8c-0.1-0.2-0.4-0.4-0.7-0.4
			c-0.1,0-0.2,0-0.3,0V4.1c0.1,0,0.2,0,0.3,0c0.7,0,1.3,0.1,1.6,0.4c0.3,0.3,0.5,0.7,0.5,1.3v3.9c0,0.3,0,0.5,0.1,0.6
			C44,10.4,44.1,10.5,44.2,10.7z M41.5,10.7c-0.2,0.1-0.5,0.1-0.7,0.1c-0.5,0-0.9-0.1-1.2-0.4C39.2,10.1,39,9.7,39,9.3
			c0-0.4,0.1-0.7,0.4-1c0.2-0.2,0.6-0.5,1.2-0.8l0.9-0.5v0.6c-0.4,0.2-0.7,0.4-0.9,0.6c-0.2,0.2-0.3,0.5-0.3,0.7
			c0,0.3,0.1,0.5,0.3,0.7c0.2,0.2,0.5,0.3,0.8,0.3c0,0,0.1,0,0.1,0V10.7L41.5,10.7z M41.5,4.6c-0.4,0.1-0.8,0.3-1.3,0.8
			c-0.2,0.2-0.4,0.5-0.6,0.8V4.7c0.3-0.1,0.5-0.2,0.7-0.3c0.4-0.2,0.8-0.3,1.2-0.3V4.6z"/>
		<path class="st10" d="M51.3,10.7h-1.6c0-0.1,0-0.3,0.1-0.3c0-0.3,0.1-0.7,0.1-1V6.5c0-1.2-0.4-1.8-1.3-1.8c-0.6,0-1,0.1-1.3,0.4
			c-0.3,0.3-0.5,0.8-0.5,1.4v3.1c0,0.3,0,0.5,0.1,0.6c0,0.1,0.1,0.3,0.2,0.4h-1.8c0.2-0.3,0.3-0.6,0.3-1V5.2c0-0.3,0-0.5-0.1-0.6
			c0-0.1-0.1-0.3-0.2-0.4h1.5v0.8c0.2-0.2,0.4-0.4,0.5-0.4C47.7,4.2,48.2,4,48.8,4c0.8,0,1.3,0.2,1.7,0.5C50.8,4.8,51,5.3,51,6.1
			v3.6c0,0.3,0,0.5,0.1,0.6C51.1,10.4,51.1,10.5,51.3,10.7z"/>
		<path class="st10" d="M56.3,8.9c0,0.6-0.2,1.1-0.7,1.4c-0.4,0.4-1,0.6-1.7,0.6c-0.5,0-0.9-0.1-1.3-0.2c-0.1-0.1-0.3-0.1-0.5-0.3
			V8.8c0.2,0.3,0.3,0.6,0.5,0.8c0.4,0.5,0.9,0.8,1.4,0.8c0.3,0,0.6-0.1,0.8-0.3c0.2-0.2,0.3-0.4,0.3-0.8c0-0.5-0.3-0.8-0.8-1.2
			c-0.5-0.3-0.9-0.6-1.4-0.8c-0.5-0.4-0.8-0.9-0.8-1.4c0-0.5,0.2-0.9,0.6-1.3c0.4-0.4,1-0.6,1.7-0.6c0.3,0,0.7,0.1,1.1,0.2
			c0.1,0,0.3,0.1,0.5,0.2v1.3c-0.1-0.3-0.3-0.4-0.4-0.6c-0.3-0.4-0.7-0.6-1.2-0.6c-0.3,0-0.6,0.1-0.8,0.3c-0.2,0.2-0.3,0.4-0.3,0.8
			c0,0.4,0.3,0.7,0.8,1c0.5,0.3,0.9,0.6,1.4,0.8C56.1,7.8,56.3,8.3,56.3,8.9z"/>
		<path class="st10" d="M63.3,7c0,1-0.3,1.9-0.8,2.5c-0.5,0.6-1.2,1-2.2,1.2v-0.5c0.4-0.1,0.7-0.3,0.9-0.6c0.5-0.5,0.7-1.3,0.7-2.3
			c0-0.9-0.2-1.5-0.5-2c-0.3-0.4-0.7-0.6-1.1-0.6V4c0.1,0,0.2,0,0.3,0c0.8,0,1.4,0.3,1.9,0.8C63,5.4,63.3,6.1,63.3,7z M60.3,10.7
			c-0.3,0-0.6,0.1-0.9,0.1l-0.8,0v2.6c0,0.3,0,0.5,0.1,0.6c0,0.1,0.1,0.3,0.2,0.4h-1.8c0.1-0.1,0.2-0.3,0.2-0.4
			c0-0.1,0.1-0.3,0.1-0.6V5.2c0-0.3,0-0.5-0.1-0.6c0-0.1-0.1-0.3-0.3-0.4h1.5V5c0.4-0.6,1-0.9,1.7-0.9v0.7c-0.1,0-0.1,0-0.2,0
			c-0.5,0-0.8,0.2-1.1,0.5c-0.3,0.3-0.4,0.8-0.4,1.4v2c0,0.5,0.1,0.9,0.2,1.2c0.2,0.3,0.4,0.4,0.7,0.4c0.2,0,0.5,0,0.7-0.1V10.7z"/>
		<path class="st10" d="M70.9,7.4c0,0.9-0.3,1.7-0.9,2.4c-0.6,0.7-1.5,1.1-2.5,1.1h0v-0.5l0,0c0.6,0,1.1-0.2,1.5-0.7
			c0.4-0.5,0.6-1.1,0.6-1.9c0-0.9-0.2-1.7-0.6-2.3c-0.4-0.6-0.9-0.9-1.5-0.9V4l0.1,0c0.9,0,1.7,0.3,2.4,1
			C70.6,5.7,70.9,6.5,70.9,7.4z M67.5,10.8c-0.9,0-1.7-0.3-2.4-0.9c-0.7-0.6-1-1.5-1-2.5c0-1,0.3-1.9,1-2.5c0.7-0.6,1.5-1,2.5-1v0.5
			c-0.6,0-1.1,0.2-1.5,0.7c-0.4,0.5-0.6,1.2-0.6,2.1c0,0.9,0.2,1.7,0.7,2.3c0.4,0.5,0.9,0.8,1.5,0.8V10.8z"/>
		<path class="st10" d="M75.3,5.8c-0.1-0.2-0.2-0.3-0.2-0.3c-0.2-0.2-0.4-0.3-0.7-0.3c-0.3,0-0.5,0.1-0.7,0.3
			c-0.2,0.3-0.3,0.6-0.3,1.1v3.1c0,0.3,0,0.5,0,0.6c0,0.1,0.1,0.2,0.2,0.4h-1.8c0.1-0.1,0.2-0.3,0.3-0.4c0-0.1,0.1-0.3,0.1-0.6V5.2
			c0-0.4-0.1-0.8-0.3-1.1h1.5v0.9c0.2-0.3,0.5-0.5,0.9-0.7c0.4-0.2,0.7-0.3,1.1-0.3V5.8z"/>
		<path class="st10" d="M79.3,10.4c-0.2,0.1-0.4,0.2-0.6,0.3c-0.2,0.1-0.4,0.1-0.7,0.1c-0.5,0-0.8-0.1-1-0.4
			c-0.2-0.3-0.3-0.7-0.3-1.4V4.7h-0.6l0.1-0.6h0.4V2.8L78,2.4v1.7h1.2l-0.1,0.6H78v4.3c0,0.3,0,0.6,0.1,0.7c0.1,0.2,0.2,0.2,0.4,0.2
			c0.1,0,0.3,0,0.4-0.1c0.1-0.1,0.2-0.2,0.3-0.3V10.4z"/>
		<path class="st10" d="M85.6,6.6h-3V6.1h1.2c0.3,0,0.4-0.2,0.4-0.5c0-0.3-0.1-0.6-0.3-0.8c-0.3-0.3-0.6-0.4-1.1-0.4
			c-0.1,0-0.1,0-0.2,0V4c0.1,0,0.2,0,0.3,0c0.8,0,1.4,0.3,1.9,0.8C85.3,5.3,85.6,5.9,85.6,6.6L85.6,6.6z M82.6,10.1
			c0.1,0,0.3,0,0.5,0c0.4,0,0.8-0.1,1.2-0.3c0.4-0.2,0.8-0.5,1-0.8l-0.2,1c-0.4,0.3-0.7,0.5-1.1,0.6c-0.4,0.1-0.7,0.2-1.1,0.2
			c-0.1,0-0.2,0-0.3,0V10.1z M82.6,6.6H81c0,0.1,0,0.3,0,0.4c0,0.1,0,0.3,0,0.4c0,0.9,0.2,1.6,0.6,2.1c0.3,0.3,0.7,0.6,1.1,0.6v0.7
			c-0.9,0-1.6-0.4-2.1-1c-0.6-0.6-0.9-1.5-0.9-2.5c0-1,0.3-1.8,0.9-2.5c0.6-0.6,1.2-0.9,2.1-1v0.5c-0.4,0-0.7,0.2-1,0.5
			c-0.2,0.3-0.4,0.6-0.6,1.2h1.6V6.6z"/>
		<path class="st10" d="M90.6,8.9c0,0.6-0.2,1.1-0.7,1.4c-0.4,0.4-1,0.6-1.7,0.6c-0.5,0-0.9-0.1-1.3-0.2c-0.1-0.1-0.3-0.1-0.5-0.3
			V8.8c0.2,0.3,0.3,0.6,0.5,0.8c0.4,0.5,0.9,0.8,1.4,0.8c0.3,0,0.6-0.1,0.8-0.3c0.2-0.2,0.3-0.4,0.3-0.8c0-0.5-0.3-0.8-0.8-1.2
			c-0.5-0.3-0.9-0.6-1.4-0.8c-0.5-0.4-0.8-0.9-0.8-1.4c0-0.5,0.2-0.9,0.6-1.3c0.4-0.4,1-0.6,1.7-0.6c0.3,0,0.7,0.1,1.1,0.2
			c0.1,0,0.3,0.1,0.5,0.2v1.3c-0.1-0.3-0.3-0.4-0.4-0.6c-0.3-0.4-0.7-0.6-1.2-0.6c-0.3,0-0.6,0.1-0.8,0.3c-0.2,0.2-0.3,0.4-0.3,0.8
			c0,0.4,0.3,0.7,0.8,1c0.5,0.3,0.9,0.6,1.4,0.8C90.3,7.8,90.6,8.3,90.6,8.9z"/>
	</g>
</g>
</svg>
